<svg xmlns="http://www.w3.org/2000/svg" viewBox="0 0 960 540"><defs><linearGradient id="s" x2="0" y2="1"><stop stop-color="#9fe2ff"/><stop offset="1" stop-color="#eefcff"/></linearGradient></defs><rect width="960" height="540" rx="36" fill="url(#s)"/><path d="M0 350Q160 320 330 355T680 350T960 335V540H0Z" fill="#2ca8df"/><path d="M550 70q110 20 155 100q-45 25-65 80q-35 95-75 185q-50-18-65-90q-5-65 25-135q20-50 25-140Z" fill="#69c55a" stroke="#2d8b44" stroke-width="8"/><circle cx="655" cy="145" r="12" fill="#e74c3c"/><path d="M657 145L760 110" stroke="#e74c3c" stroke-width="7"/><rect x="720" y="75" width="170" height="62" rx="16" fill="#fff8db" stroke="#c98e45" stroke-width="6"/><text x="805" y="115" text-anchor="middle" font-size="28" font-family="sans-serif" font-weight="800" fill="#17324a">三貂角</text><g transform="translate(70 120)"><rect width="345" height="160" rx="22" fill="#fff" opacity=".94" stroke="#7fb8d8" stroke-width="6"/><text x="172" y="55" text-anchor="middle" font-size="28" font-family="sans-serif" fill="#7a3e2b">聖地牙哥</text><text x="172" y="105" text-anchor="middle" font-size="28" font-family="sans-serif" fill="#17324a">Santiago</text><path d="M80 140h185" stroke="#e87a31" stroke-width="9" marker-end="url(#a)"/></g><text x="480" y="490" text-anchor="middle" font-size="34" font-family="sans-serif" font-weight="800" fill="#17324a">聖地牙哥 → 今日的三貂角</text></svg>